PathFileType	3	(X/Y/Z)	running_1__view1_aligned.trc
DataRate	CameraRate	NumFrames	NumMarkers	Units	OrigDataRate	OrigDataStartFrame	OrigNumFrames
100.0	100.0	12	19	mm	100.0	5824	6401
Frame#	Time	pelvis			neck			head			hip_left			hip_right			knee_left			knee_right			ankle_left			ankle_right			heel_left			heel_right			toe_left			toe_right			shoulder_left			shoulder_right			elbow_left			elbow_right			wrist_left			wrist_right			
		X1	Y1	Z1	X2	Y2	Z2	X3	Y3	Z3	X4	Y4	Z4	X5	Y5	Z5	X6	Y6	Z6	X7	Y7	Z7	X8	Y8	Z8	X9	Y9	Z9	X10	Y10	Z10	X11	Y11	Z11	X12	Y12	Z12	X13	Y13	Z13	X14	Y14	Z14	X15	Y15	Z15	X16	Y16	Z16	X17	Y17	Z17	X18	Y18	Z18	X19	Y19	Z19	
5824	58.23000	46.536150	960.307716	69.769025	18.399076	1487.032384	238.201743	29.470749	1560.298248	386.279410	123.964746	961.333407	63.178992	-30.892789	959.281970	76.359375	140.506068	533.681782	79.231292	-56.565066	548.484654	215.058826	110.580815	259.238823	-197.433485	-66.974268	154.535633	117.761074	100.400307	249.859890	-248.519738	-69.136329	106.160173	80.033225	119.835731	96.465827	-134.569636	-55.648241	95.043589	306.335179	187.287929	1483.850657	192.432939	-146.173404	1438.917616	193.946901	293.295908	1258.827287	102.087707	-253.394043	1218.699169	73.945122	192.197127	1172.226065	284.938072	-189.796637	1054.312161	231.425883
5825	58.24000	46.385675	960.687492	70.050555	17.714237	1487.525422	238.211586	29.105396	1560.345783	386.229000	123.873749	961.683044	63.746125	-31.102676	959.691897	76.355237	140.972781	535.144324	85.703695	-58.470495	547.328060	209.052453	112.246212	259.355627	-186.682774	-69.072740	154.709130	108.385833	102.338903	249.591333	-237.413403	-71.005381	107.084924	70.418558	120.670840	97.800750	-122.928850	-58.346362	93.377041	294.208362	186.189653	1485.169747	191.677366	-146.868098	1438.637126	194.878450	291.346453	1263.097550	95.388713	-252.291705	1216.660816	77.964379	195.417175	1171.190502	276.388358	-187.352068	1056.055138	236.137616
5826	58.25000	46.235199	961.067268	70.332085	17.029398	1488.018460	238.221429	28.740043	1560.393318	386.178590	123.782753	962.032681	64.313258	-31.312562	960.101823	76.351099	141.439494	536.606866	92.176097	-60.375924	546.171467	203.046080	113.911610	259.472430	-175.932064	-71.171211	154.882627	99.010593	104.277498	249.322776	-226.307067	-72.874432	108.009676	60.803891	121.505950	99.135672	-111.288065	-61.044483	91.710494	282.081546	185.091378	1486.488838	190.921793	-147.562791	1438.356637	195.809998	289.396999	1267.367813	88.689719	-251.189366	1214.622464	81.983636	198.637223	1170.154940	267.838644	-184.907499	1057.798116	240.849348
5827	58.26000	46.084724	961.447045	70.613615	16.344559	1488.511498	238.231272	28.374689	1560.440853	386.128181	123.691756	962.382319	64.880391	-31.522449	960.511750	76.346962	141.906207	538.069408	98.648500	-62.281352	545.014873	197.039706	115.577007	259.589234	-165.181353	-73.269683	155.056125	89.635352	106.216094	249.054219	-215.200731	-74.743484	108.934427	51.189224	122.341059	100.470594	-99.647280	-63.742604	90.043947	269.954729	183.993103	1487.807928	190.166220	-148.257485	1438.076147	196.741547	287.447544	1271.638076	81.990725	-250.087027	1212.584112	86.002893	201.857271	1169.119377	259.288930	-182.462930	1059.541093	245.561080
5828	58.27000	45.934248	961.826821	70.895144	15.659721	1489.004536	238.241114	28.009336	1560.488389	386.077771	123.600760	962.731956	65.447524	-31.732336	960.921676	76.342824	142.372920	539.531950	105.120903	-64.186781	543.858279	191.033333	117.242405	259.706037	-154.430642	-75.368154	155.229622	80.260111	108.154690	248.785662	-204.094396	-76.612535	109.859179	41.574557	123.176168	101.805516	-88.006494	-66.440725	88.377399	257.827913	182.894827	1489.127019	189.410647	-148.952179	1437.795657	197.673095	285.498089	1275.908339	75.291731	-248.984689	1210.545759	90.022150	205.077319	1168.083815	250.739216	-180.018361	1061.284070	250.272812
5829	58.28000	45.783773	962.206598	71.176674	14.974882	1489.497574	238.250957	27.643983	1560.535924	386.027362	123.509763	963.081593	66.014656	-31.942223	961.331603	76.338686	142.839633	540.994492	111.593306	-66.092210	542.701685	185.026959	118.907802	259.822841	-143.679932	-77.466626	155.403119	70.884870	110.093285	248.517105	-192.988060	-78.481587	110.783930	31.959890	124.011277	103.140438	-76.365709	-69.138846	86.710852	245.701096	181.796552	1490.446110	188.655074	-149.646873	1437.515168	198.604643	283.548634	1280.178603	68.592737	-247.882350	1208.507407	94.041407	208.297367	1167.048253	242.189503	-177.573791	1063.027048	254.984544
5830	58.29000	45.633297	962.586374	71.458204	14.290043	1489.990611	238.260800	27.278629	1560.583459	385.976952	123.418767	963.431230	66.581789	-32.152110	961.741529	76.334549	143.306346	542.457034	118.065709	-67.997638	541.545091	179.020586	120.573200	259.939644	-132.929221	-79.565097	155.576616	61.509630	112.031881	248.248548	-181.881724	-80.350638	111.708682	22.345223	124.846386	104.475361	-64.724924	-71.836967	85.044304	233.574280	180.698276	1491.765200	187.899501	-150.341567	1437.234678	199.536192	281.599180	1284.448866	61.893743	-246.780011	1206.469055	98.060663	211.517415	1166.012690	233.639789	-175.129222	1064.770025	259.696276
5831	58.30000	45.482822	962.966151	71.739734	13.605204	1490.483649	238.270642	26.913276	1560.630995	385.926543	123.327770	963.780867	67.148922	-32.361997	962.151456	76.330411	143.773058	543.919576	124.538112	-69.903067	540.388497	173.014213	122.238597	260.056448	-122.178510	-81.663569	155.750113	52.134389	113.970477	247.979990	-170.775388	-82.219690	112.633434	12.730557	125.681496	105.810283	-53.084138	-74.535088	83.377757	221.447464	179.600001	1493.084291	187.143928	-151.036260	1436.954188	200.467740	279.649725	1288.719129	55.194749	-245.677673	1204.430702	102.079920	214.737463	1164.977128	225.090075	-172.684653	1066.513003	264.408008
5832	58.31000	45.332346	963.345927	72.021263	12.920365	1490.976687	238.280485	26.547923	1560.678530	385.876133	123.236774	964.130505	67.716055	-32.571884	962.561382	76.326274	144.239771	545.382118	131.010515	-71.808496	539.231904	167.007839	123.903995	260.173251	-111.427800	-83.762040	155.923610	42.759148	115.909073	247.711433	-159.669053	-84.088741	113.558185	3.115890	126.516605	107.145205	-41.443353	-77.233209	81.711210	209.320647	178.501725	1494.403381	186.388355	-151.730954	1436.673698	201.399289	277.700270	1292.989392	48.495755	-244.575334	1202.392350	106.099177	217.957511	1163.941565	216.540361	-170.240084	1068.255980	269.119740
5833	58.32000	45.181871	963.725704	72.302793	12.235526	1491.469725	238.290328	26.182569	1560.726065	385.825723	123.145777	964.480142	68.283188	-32.781771	962.971308	76.322136	144.706484	546.844660	137.482918	-73.713924	538.075310	161.001466	125.569392	260.290055	-100.677089	-85.860512	156.097108	33.383907	117.847668	247.442876	-148.562717	-85.957793	114.482937	-6.498777	127.351714	108.480127	-29.802568	-79.931330	80.044662	197.193831	177.403450	1495.722472	185.632782	-152.425648	1436.393209	202.330837	275.750816	1297.259655	41.796761	-243.472995	1200.353998	110.118434	221.177559	1162.906003	207.990647	-167.795515	1069.998957	273.831473
5834	58.33000	45.031395	964.105480	72.584323	11.550688	1491.962763	238.300171	25.817216	1560.773600	385.775314	123.054781	964.829779	68.850321	-32.991658	963.381235	76.317998	145.173197	548.307202	143.955321	-75.619353	536.918716	154.995092	127.234790	260.406859	-89.926378	-87.958983	156.270605	24.008666	119.786264	247.174319	-137.456381	-87.826844	115.407688	-16.113444	128.186823	109.815050	-18.161782	-82.629451	78.378115	185.067014	176.305175	1497.041563	184.877208	-153.120342	1436.112719	203.262386	273.801361	1301.529918	35.097767	-242.370657	1198.315645	114.137691	224.397607	1161.870440	199.440933	-165.350946	1071.741935	278.543205
5835	58.34000	46.539673	962.589195	71.459600	13.129369	1490.471154	236.736172	27.474581	1559.048843	384.410091	124.531907	963.393291	67.969832	-31.452227	961.785153	74.949041	146.530413	547.627964	151.436887	-74.905710	534.469268	151.070062	129.632766	257.355148	-77.845505	-88.424702	160.751508	9.745982	122.627804	243.195353	-124.951941	-88.166654	121.894923	-31.261636	129.198682	110.015793	-3.162558	-84.006803	77.651467	165.154952	177.820736	1495.536139	182.588634	-151.807043	1434.120523	202.278734	273.994582	1300.804291	29.171428	-239.313878	1194.331017	115.644135	229.240406	1156.377276	193.308453	-161.983521	1070.286264	281.297303
